<svg width="24" height="24" viewBox="0 0 24 24" fill="none" xmlns="http://www.w3.org/2000/svg">
<path fill-rule="evenodd" clip-rule="evenodd" d="M12 2.25C11.8011 2.25 11.6103 2.32902 11.4697 2.46967C11.329 2.61032 11.25 2.80109 11.25 3V14.26C10.5 13.6238 9.55259 13.2674 8.56923 13.2515C7.58587 13.2356 6.62744 13.5613 5.85732 14.173C5.08721 14.7847 4.55308 15.6446 4.34597 16.606C4.13887 17.5674 4.27163 18.5709 4.7216 19.4454C5.17157 20.32 5.91092 21.0113 6.8136 21.4018C7.71628 21.7922 8.72642 21.8574 9.67183 21.5864C10.6172 21.3154 11.4394 20.7249 11.9982 19.9155C12.5569 19.1062 12.8177 18.1281 12.736 17.148C12.7455 17.0992 12.7502 17.0497 12.75 17V7.75H18C18.7293 7.75 19.4288 7.46027 19.9445 6.94454C20.4603 6.42882 20.75 5.72935 20.75 5C20.75 4.27065 20.4603 3.57118 19.9445 3.05546C19.4288 2.53973 18.7293 2.25 18 2.25H12ZM12.75 6.25H18C18.3315 6.25 18.6495 6.1183 18.8839 5.88388C19.1183 5.64946 19.25 5.33152 19.25 5C19.25 4.66848 19.1183 4.35054 18.8839 4.11612C18.6495 3.8817 18.3315 3.75 18 3.75H12.75V6.25ZM8.5 14.75C7.77065 14.75 7.07118 15.0397 6.55545 15.5555C6.03973 16.0712 5.75 16.7707 5.75 17.5C5.75 18.2293 6.03973 18.9288 6.55545 19.4445C7.07118 19.9603 7.77065 20.25 8.5 20.25C9.22934 20.25 9.92882 19.9603 10.4445 19.4445C10.9603 18.9288 11.25 18.2293 11.25 17.5C11.25 16.7707 10.9603 16.0712 10.4445 15.5555C9.92882 15.0397 9.22934 14.75 8.5 14.75Z" fill="black"/>
</svg>
