<svg width="24" height="24" viewBox="0 0 24 24" fill="none" xmlns="http://www.w3.org/2000/svg">
<path d="M13.98 23.4795C13.8407 23.2992 13.7547 23.0834 13.7319 22.8567C13.7091 22.63 13.7504 22.4014 13.851 22.197C14.115 21.684 14.2185 21.0975 14.151 20.52C14.0957 20.1079 13.9596 19.7109 13.7505 19.3515C13.5441 18.9968 13.268 18.6876 12.939 18.4425C11.8175 17.5996 11.0305 16.387 10.7175 15.0195C8.15547 18.378 9.13797 20.2845 10.365 21.9645C10.5088 22.1614 10.5846 22.3999 10.5808 22.6438C10.577 22.8876 10.4939 23.1236 10.344 23.316C10.1912 23.5107 9.98623 23.6579 9.75297 23.7405C9.5224 23.8214 9.27324 23.8334 9.03597 23.775C7.37847 23.37 5.81847 22.599 4.76097 21.3705C4.16152 20.6881 3.70001 19.896 3.40197 19.038C3.10053 18.1727 2.96665 17.2579 3.00747 16.3425C3.00747 16.3425 2.80797 12.648 7.26297 9.0285C7.26297 9.0285 12.528 4.5615 10.701 1.2585C10.6337 1.09603 10.6137 0.917813 10.6434 0.744475C10.6732 0.571137 10.7514 0.409757 10.869 0.279C10.9833 0.1508 11.1343 0.0608743 11.3015 0.0214281C11.4686 -0.0180182 11.6439 -0.00507524 11.8035 0.0585005L12.0225 0.1455C14.0056 1.39906 15.5555 3.23179 16.4625 5.3955C17.3325 7.515 17.3265 9.9855 16.7385 12.186C17.226 11.748 17.6325 11.2245 17.94 10.6365L17.9835 10.5405C18.2805 9.825 19.215 10.053 19.566 10.521C19.695 10.7265 23.004 15.5355 21.2265 19.593C20.5766 20.8223 19.6273 21.868 18.4665 22.6335C17.4924 23.2799 16.4039 23.7345 15.2595 23.973C15.0229 24.0228 14.777 24.003 14.5515 23.916C14.3239 23.8275 14.1259 23.6768 13.98 23.481V23.4795ZM11.331 11.838C11.471 11.765 11.6333 11.747 11.7859 11.7875C11.9386 11.828 12.0706 11.9242 12.156 12.057C12.216 12.1455 12.255 12.246 12.2685 12.354L12.336 12.8775C12.366 13.644 12.357 14.445 12.6555 15.1815C12.9645 15.9375 13.4445 16.6065 14.0535 17.1285C14.838 17.6447 15.4453 18.3892 15.7935 19.2615C16.1235 20.1075 16.1685 21.0465 15.9195 21.921C16.6813 21.6807 17.3893 21.2951 18.0045 20.7855L18.159 20.6595C18.663 20.244 19.0785 19.725 19.3785 19.134C19.68 18.5445 19.8615 17.8965 19.9095 17.2305C20.007 15.693 19.4835 14.1495 18.669 12.7725C18.297 13.3125 17.784 13.731 17.1915 13.9785C16.821 14.136 16.428 14.2335 16.0275 14.2635C15.7981 14.2783 15.5693 14.2262 15.369 14.1135C15.1655 13.9979 14.9987 13.8274 14.8875 13.6215C14.7954 13.4555 14.7428 13.2705 14.7337 13.0809C14.7246 12.8913 14.7593 12.7021 14.835 12.528C15.453 11.07 15.645 9.453 15.3825 7.8825C15.0717 6.0857 14.2112 4.42957 12.9195 3.1425C12.6855 6.45 9.29397 9.5295 8.59797 10.1925C8.49008 10.2942 8.37799 10.3912 8.26197 10.4835C4.62297 13.431 4.87197 16.116 4.87197 16.2345C4.79971 17.3011 5.0389 18.3658 5.56047 19.299C6.10797 20.2665 6.89547 21.0645 7.84047 21.609C6.74997 19.212 6.74997 16.335 10.7745 12.21L11.3325 11.835L11.331 11.838Z" fill="black"/>
</svg>
