<svg width="93" height="22" viewBox="0 0 93 22" fill="none" xmlns="http://www.w3.org/2000/svg">
<path d="M23.9294 6.61048C23.6478 5.55826 22.8208 4.73137 21.7686 4.44971C19.8634 3.93869 12.2202 3.93869 12.2202 3.93869C12.2202 3.93869 4.57704 3.93869 2.67178 4.44971C1.61957 4.73137 0.792684 5.55826 0.51102 6.61048C1.52967e-07 8.51573 0 12.4932 0 12.4932C0 12.4932 1.52967e-07 16.4708 0.51102 18.376C0.792684 19.4282 1.61957 20.2551 2.67178 20.5367C4.57704 21.0478 12.2202 21.0478 12.2202 21.0478C12.2202 21.0478 19.8634 21.0478 21.7686 20.5367C22.8208 20.2551 23.6478 19.4282 23.9294 18.376C24.4404 16.4708 24.4404 12.4932 24.4404 12.4932C24.4404 12.4932 24.4384 8.51573 23.9294 6.61048Z" fill="#FF0000"/>
<path d="M9.7738 16.1592L16.1233 12.4936L9.7738 8.82789V16.1592Z" fill="white"/>
<path d="M29.6008 15.0627L26.8566 5.15211H29.2507L30.2124 9.64466C30.4579 10.7512 30.6369 11.6948 30.7536 12.4754H30.824C30.9045 11.9161 31.0856 10.9785 31.3652 9.66076L32.3611 5.15211H34.7552L31.9768 15.0627V19.8168H29.5988V15.0627H29.6008Z" fill="white"/>
<path d="M35.4755 19.5026C34.9927 19.1767 34.6487 18.6696 34.4434 17.9816C34.2403 17.2935 34.1377 16.3802 34.1377 15.2374V13.6821C34.1377 12.5293 34.2544 11.6019 34.4877 10.9038C34.7211 10.2056 35.0853 9.69462 35.5802 9.37473C36.0751 9.05485 36.7249 8.89389 37.5297 8.89389C38.3224 8.89389 38.9561 9.05686 39.4349 9.38278C39.9118 9.7087 40.2618 10.2197 40.4831 10.9118C40.7044 11.6059 40.8151 12.5293 40.8151 13.6821V15.2374C40.8151 16.3802 40.7065 17.2976 40.4912 17.9896C40.2759 18.6837 39.9259 19.1908 39.443 19.5106C38.9602 19.8306 38.3043 19.9915 37.4774 19.9915C36.6243 19.9934 35.9584 19.8285 35.4755 19.5026ZM38.1836 17.8247C38.3163 17.4746 38.3848 16.9052 38.3848 16.1126V12.7749C38.3848 12.0063 38.3184 11.443 38.1836 11.0889C38.0487 10.7328 37.8134 10.5557 37.4753 10.5557C37.1495 10.5557 36.9181 10.7328 36.7853 11.0889C36.6505 11.445 36.5841 12.0063 36.5841 12.7749V16.1126C36.5841 16.9052 36.6485 17.4766 36.7773 17.8247C36.906 18.1747 37.1373 18.3498 37.4753 18.3498C37.8134 18.3498 38.0487 18.1747 38.1836 17.8247Z" fill="white"/>
<path d="M48.603 19.8188H46.7159L46.5066 18.5071H46.4544C45.9413 19.4969 45.1727 19.9918 44.1467 19.9918C43.4365 19.9918 42.9114 19.7584 42.5734 19.2938C42.2354 18.8269 42.0664 18.0987 42.0664 17.1088V9.1035H44.4787V16.9679C44.4787 17.4468 44.531 17.7868 44.6356 17.99C44.7402 18.1932 44.9152 18.2958 45.1607 18.2958C45.3699 18.2958 45.5711 18.2315 45.7643 18.1027C45.9574 17.9739 46.0982 17.8109 46.1928 17.6138V9.10149H48.603V19.8188Z" fill="white"/>
<path d="M55.1558 7.09325H52.7617V19.8184H50.4017V7.09325H48.0076V5.15378H55.1558V7.09325Z" fill="white"/>
<path d="M60.9741 19.8188H59.087L58.8777 18.5071H58.8255C58.3125 19.4969 57.5439 19.9918 56.5178 19.9918C55.8076 19.9918 55.2825 19.7584 54.9445 19.2938C54.6065 18.8269 54.4375 18.0987 54.4375 17.1088V9.1035H56.8498V16.9679C56.8498 17.4468 56.9021 17.7868 57.0067 17.99C57.1113 18.1932 57.2863 18.2958 57.5319 18.2958C57.741 18.2958 57.9422 18.2315 58.1354 18.1027C58.3285 17.9739 58.4693 17.8109 58.5639 17.6138V9.10149H60.9741V19.8188Z" fill="white"/>
<path d="M68.9574 10.8154C68.8105 10.1394 68.5751 9.65055 68.2493 9.34675C67.9233 9.04296 67.4746 8.89207 66.9033 8.89207C66.4607 8.89207 66.0462 9.0168 65.6619 9.26829C65.2777 9.51978 64.9799 9.84771 64.7706 10.2561H64.7526V4.61077H62.4288V19.8166H64.4206L64.666 18.8026H64.7184C64.9055 19.1648 65.1851 19.4484 65.5573 19.6597C65.9295 19.869 66.344 19.9736 66.7987 19.9736C67.6135 19.9736 68.215 19.5974 68.5993 18.8469C68.9836 18.0944 69.1767 16.9215 69.1767 15.3241V13.6281C69.1767 12.431 69.1022 11.4914 68.9574 10.8154ZM66.7463 15.1872C66.7463 15.9678 66.7141 16.5795 66.6497 17.0221C66.5854 17.4647 66.4787 17.7806 66.3259 17.9657C66.175 18.1528 65.9697 18.2453 65.7142 18.2453C65.5151 18.2453 65.332 18.199 65.163 18.1045C64.994 18.0119 64.8572 17.8711 64.7526 17.686V11.6041C64.833 11.3124 64.9739 11.075 65.173 10.8879C65.3702 10.7008 65.5875 10.6082 65.8188 10.6082C66.0643 10.6082 66.2534 10.7048 66.3863 10.8959C66.521 11.089 66.6135 11.411 66.6659 11.8656C66.7182 12.3203 66.7443 12.9661 66.7443 13.8051V15.1872H66.7463Z" fill="white"/>
<path d="M72.5987 15.8049C72.5987 16.4929 72.6188 17.008 72.6591 17.3521C72.6993 17.696 72.7839 17.9456 72.9126 18.1045C73.0413 18.2614 73.2385 18.3398 73.5061 18.3398C73.8663 18.3398 74.1157 18.199 74.2485 17.9194C74.3833 17.6397 74.4558 17.173 74.4678 16.5211L76.5481 16.6438C76.5602 16.7364 76.5662 16.8651 76.5662 17.0281C76.5662 18.0179 76.2946 18.7583 75.7534 19.2472C75.2122 19.7361 74.4457 19.9815 73.4558 19.9815C72.2668 19.9815 71.4339 19.6093 70.957 18.863C70.4782 18.1166 70.2408 16.9638 70.2408 15.4025V13.5314C70.2408 11.9239 70.4883 10.749 70.9832 10.0086C71.4782 9.26826 72.3252 8.89807 73.5262 8.89807C74.3531 8.89807 74.9889 9.04896 75.4315 9.35276C75.8741 9.65655 76.1859 10.1273 76.367 10.7691C76.5481 11.4109 76.6386 12.2961 76.6386 13.4268V15.2617H72.5987V15.8049ZM72.9046 10.755C72.7818 10.9059 72.7014 11.1534 72.6591 11.4974C72.6188 11.8415 72.5987 12.3625 72.5987 13.0627V13.8313H74.3632V13.0627C74.3632 12.3746 74.3391 11.8535 74.2928 11.4974C74.2465 11.1413 74.162 10.8919 74.0392 10.745C73.9166 10.6001 73.7274 10.5257 73.4719 10.5257C73.2144 10.5277 73.0253 10.6042 72.9046 10.755Z" fill="white"/>
<g clip-path="url(#clip0_229_1261)">
<path d="M89.8096 3.99015V3.27018L92.4091 3.26599V5.54311C92.01 5.86123 91.5984 6.10122 91.1742 6.26308C90.7501 6.42214 90.3147 6.50167 89.8683 6.50167C89.2655 6.50167 88.7171 6.3733 88.2232 6.11657C87.7321 5.85705 87.3609 5.48311 87.1098 4.99476C86.8586 4.5064 86.733 3.96085 86.733 3.35808C86.733 2.7609 86.8572 2.20417 87.1056 1.68792C87.3567 1.16887 87.7167 0.783768 88.1855 0.532615C88.6543 0.281463 89.1943 0.155887 89.8055 0.155887C90.2492 0.155887 90.6496 0.228442 91.0068 0.373552C91.3668 0.515872 91.6486 0.715398 91.8524 0.972132C92.0561 1.22887 92.2109 1.56374 92.317 1.97674L91.5845 2.17766C91.4924 1.86512 91.378 1.61955 91.2412 1.44095C91.1045 1.26235 90.9091 1.12003 90.6552 1.01399C90.4013 0.905158 90.1194 0.850742 89.8096 0.850742C89.4385 0.850742 89.1176 0.907949 88.8469 1.02236C88.5762 1.13399 88.3572 1.28189 88.1897 1.46607C88.0251 1.65024 87.8967 1.85256 87.8046 2.07302C87.6483 2.45254 87.5702 2.86415 87.5702 3.30785C87.5702 3.8548 87.6637 4.31246 87.8507 4.68082C88.0404 5.04917 88.3153 5.32265 88.6753 5.50125C89.0353 5.67984 89.4176 5.76914 89.8222 5.76914C90.1738 5.76914 90.5171 5.70217 90.8519 5.56822C91.1868 5.43148 91.4407 5.28637 91.6138 5.13289V3.99015H89.8096Z" fill="white"/>
<path d="M80.7346 6.39702V0.260533H81.5676L84.7907 5.07847V0.260533H85.5693V6.39702H84.7363L81.5132 1.5749V6.39702H80.7346Z" fill="white"/>
</g>
<defs>
<clipPath id="clip0_229_1261">
<rect width="11.6744" height="6.34578" fill="white" transform="translate(80.7346 0.155887)"/>
</clipPath>
</defs>
</svg>
