<svg width="93" height="21" viewBox="0 0 93 21" fill="none" xmlns="http://www.w3.org/2000/svg">
<path d="M23.9294 6.45459C23.6478 5.40237 22.8208 4.57548 21.7686 4.29382C19.8634 3.7828 12.2202 3.7828 12.2202 3.7828C12.2202 3.7828 4.57704 3.7828 2.67178 4.29382C1.61957 4.57548 0.792684 5.40237 0.51102 6.45459C1.52967e-07 8.35984 0 12.3373 0 12.3373C0 12.3373 1.52967e-07 16.3149 0.51102 18.2201C0.792684 19.2724 1.61957 20.0992 2.67178 20.3808C4.57704 20.8919 12.2202 20.8919 12.2202 20.8919C12.2202 20.8919 19.8634 20.8919 21.7686 20.3808C22.8208 20.0992 23.6478 19.2724 23.9294 18.2201C24.4404 16.3149 24.4404 12.3373 24.4404 12.3373C24.4404 12.3373 24.4384 8.35984 23.9294 6.45459Z" fill="#FF0000"/>
<path d="M9.7738 16.0033L16.1233 12.3377L9.7738 8.67201V16.0033Z" fill="white"/>
<path d="M29.6008 14.9068L26.8566 4.99623H29.2507L30.2124 9.48877C30.4579 10.5953 30.6369 11.5389 30.7536 12.3195H30.824C30.9045 11.7602 31.0856 10.8227 31.3652 9.50487L32.3611 4.99623H34.7552L31.9768 14.9068V19.6609H29.5988V14.9068H29.6008Z" fill="#181818"/>
<path d="M35.4755 19.3467C34.9927 19.0208 34.6487 18.5137 34.4434 17.8257C34.2403 17.1376 34.1377 16.2243 34.1377 15.0815V13.5263C34.1377 12.3734 34.2544 11.446 34.4877 10.7479C34.7211 10.0498 35.0853 9.53874 35.5802 9.21885C36.0751 8.89896 36.7249 8.738 37.5297 8.738C38.3224 8.738 38.9561 8.90097 39.4349 9.2269C39.9118 9.55282 40.2618 10.0638 40.4831 10.7559C40.7044 11.45 40.8151 12.3734 40.8151 13.5263V15.0815C40.8151 16.2243 40.7065 17.1417 40.4912 17.8337C40.2759 18.5278 39.9259 19.0349 39.443 19.3547C38.9602 19.6747 38.3043 19.8356 37.4774 19.8356C36.6243 19.8375 35.9584 19.6726 35.4755 19.3467ZM38.1836 17.6688C38.3163 17.3187 38.3848 16.7494 38.3848 15.9567V12.619C38.3848 11.8504 38.3184 11.2871 38.1836 10.933C38.0487 10.5769 37.8134 10.3998 37.4753 10.3998C37.1495 10.3998 36.9181 10.5769 36.7853 10.933C36.6505 11.2891 36.5841 11.8504 36.5841 12.619V15.9567C36.5841 16.7494 36.6485 17.3207 36.7773 17.6688C36.906 18.0189 37.1373 18.1939 37.4753 18.1939C37.8134 18.1939 38.0487 18.0189 38.1836 17.6688Z" fill="#181818"/>
<path d="M48.603 19.663H46.7159L46.5066 18.3512H46.4544C45.9413 19.341 45.1727 19.8359 44.1467 19.8359C43.4365 19.8359 42.9114 19.6026 42.5734 19.1379C42.2354 18.6711 42.0664 17.9428 42.0664 16.953V8.94762H44.4787V16.8121C44.4787 17.2909 44.531 17.6309 44.6356 17.8342C44.7402 18.0373 44.9152 18.1399 45.1607 18.1399C45.3699 18.1399 45.5711 18.0756 45.7643 17.9468C45.9574 17.818 46.0982 17.655 46.1928 17.4579V8.94561H48.603V19.663Z" fill="#181818"/>
<path d="M55.1558 6.93736H52.7617V19.6625H50.4017V6.93736H48.0076V4.99789H55.1558V6.93736Z" fill="#181818"/>
<path d="M60.9741 19.663H59.087L58.8777 18.3512H58.8255C58.3125 19.341 57.5439 19.8359 56.5178 19.8359C55.8076 19.8359 55.2825 19.6026 54.9445 19.1379C54.6065 18.6711 54.4375 17.9428 54.4375 16.953V8.94762H56.8498V16.8121C56.8498 17.2909 56.9021 17.6309 57.0067 17.8342C57.1113 18.0373 57.2863 18.1399 57.5319 18.1399C57.741 18.1399 57.9422 18.0756 58.1354 17.9468C58.3285 17.818 58.4693 17.655 58.5639 17.4579V8.94561H60.9741V19.663Z" fill="#181818"/>
<path d="M68.9574 10.6595C68.8105 9.98355 68.5751 9.49466 68.2493 9.19086C67.9233 8.88707 67.4746 8.73618 66.9033 8.73618C66.4607 8.73618 66.0462 8.86092 65.6619 9.1124C65.2777 9.36389 64.9799 9.69183 64.7706 10.1002H64.7526V4.45488H62.4288V19.6607H64.4206L64.666 18.6468H64.7184C64.9055 19.0089 65.1851 19.2925 65.5573 19.5038C65.9295 19.7131 66.344 19.8177 66.7987 19.8177C67.6135 19.8177 68.215 19.4415 68.5993 18.691C68.9836 17.9385 69.1767 16.7656 69.1767 15.1682V13.4722C69.1767 12.2751 69.1022 11.3355 68.9574 10.6595ZM66.7463 15.0313C66.7463 15.8119 66.7141 16.4236 66.6497 16.8662C66.5854 17.3088 66.4787 17.6247 66.3259 17.8098C66.175 17.9969 65.9697 18.0894 65.7142 18.0894C65.5151 18.0894 65.332 18.0431 65.163 17.9486C64.994 17.8561 64.8572 17.7153 64.7526 17.5301V11.4482C64.833 11.1565 64.9739 10.9191 65.173 10.732C65.3702 10.5449 65.5875 10.4523 65.8188 10.4523C66.0643 10.4523 66.2534 10.5489 66.3863 10.74C66.521 10.9332 66.6135 11.2551 66.6659 11.7098C66.7182 12.1644 66.7443 12.8102 66.7443 13.6492V15.0313H66.7463Z" fill="#181818"/>
<path d="M72.5987 15.649C72.5987 16.337 72.6188 16.8521 72.6591 17.1962C72.6993 17.5401 72.7839 17.7897 72.9126 17.9486C73.0413 18.1055 73.2385 18.184 73.5061 18.184C73.8663 18.184 74.1157 18.0431 74.2485 17.7635C74.3833 17.4839 74.4558 17.0171 74.4678 16.3653L76.5481 16.4879C76.5602 16.5805 76.5662 16.7092 76.5662 16.8722C76.5662 17.862 76.2946 18.6024 75.7534 19.0913C75.2122 19.5802 74.4457 19.8257 73.4558 19.8257C72.2668 19.8257 71.4339 19.4535 70.957 18.7071C70.4782 17.9607 70.2408 16.8079 70.2408 15.2466V13.3755C70.2408 11.7681 70.4883 10.5931 70.9832 9.85275C71.4782 9.11237 72.3252 8.74218 73.5262 8.74218C74.3531 8.74218 74.9889 8.89307 75.4315 9.19687C75.8741 9.50066 76.1859 9.97144 76.367 10.6132C76.5481 11.255 76.6386 12.1403 76.6386 13.2709V15.1058H72.5987V15.649ZM72.9046 10.5992C72.7818 10.75 72.7014 10.9975 72.6591 11.3415C72.6188 11.6856 72.5987 12.2067 72.5987 12.9068V13.6754H74.3632V12.9068C74.3632 12.2187 74.3391 11.6976 74.2928 11.3415C74.2465 10.9854 74.162 10.736 74.0392 10.5891C73.9166 10.4442 73.7274 10.3698 73.4719 10.3698C73.2144 10.3718 73.0253 10.4483 72.9046 10.5992Z" fill="#181818"/>
<g clip-path="url(#clip0_229_1262)">
<path d="M89.8096 3.83426V3.11429L92.4091 3.1101V5.38722C92.01 5.70535 91.5984 5.94534 91.1742 6.10719C90.7501 6.26625 90.3147 6.34578 89.8683 6.34578C89.2655 6.34578 88.7171 6.21742 88.2232 5.96068C87.7321 5.70116 87.3609 5.32722 87.1098 4.83887C86.8586 4.35052 86.733 3.80496 86.733 3.20219C86.733 2.60501 86.8572 2.04829 87.1056 1.53203C87.3567 1.01298 87.7167 0.627881 88.1855 0.376729C88.6543 0.125576 89.1943 0 89.8055 0C90.2492 0 90.6496 0.0725551 91.0068 0.217665C91.3668 0.359985 91.6486 0.559512 91.8524 0.816245C92.0561 1.07298 92.2109 1.40785 92.317 1.82086L91.5845 2.02178C91.4924 1.70923 91.378 1.46366 91.2412 1.28506C91.1045 1.10647 90.9091 0.964146 90.6552 0.858104C90.4013 0.749271 90.1194 0.694855 89.8096 0.694855C89.4385 0.694855 89.1176 0.752062 88.8469 0.866476C88.5762 0.978099 88.3572 1.126 88.1897 1.31018C88.0251 1.49436 87.8967 1.69667 87.8046 1.91713C87.6483 2.29665 87.5702 2.70826 87.5702 3.15196C87.5702 3.69892 87.6637 4.15657 87.8507 4.52493C88.0404 4.89329 88.3153 5.16676 88.6753 5.34536C89.0353 5.52396 89.4176 5.61326 89.8222 5.61326C90.1738 5.61326 90.5171 5.54628 90.8519 5.41233C91.1868 5.2756 91.4407 5.13049 91.6138 4.977V3.83426H89.8096Z" fill="#181818"/>
<path d="M80.7346 6.24114V0.104647H81.5676L84.7907 4.92259V0.104647H85.5693V6.24114H84.7363L81.5132 1.41901V6.24114H80.7346Z" fill="#181818"/>
</g>
<defs>
<clipPath id="clip0_229_1262">
<rect width="11.6744" height="6.34578" fill="white" transform="translate(80.7346)"/>
</clipPath>
</defs>
</svg>
